<mxfile host="app.diagrams.net" modified="2023-11-23T15:09:41.628Z" agent="Mozilla/5.0 (Windows NT 10.0; Win64; x64) AppleWebKit/537.36 (KHTML, like Gecko) Chrome/119.0.0.0 Safari/537.36" etag="ObjWqV-O8UEDCXpgA_Bj" version="22.1.3" type="device">
  <diagram name="Page-1" id="e7e014a7-5840-1c2e-5031-d8a46d1fe8dd">
    <mxGraphModel dx="991" dy="711" grid="1" gridSize="10" guides="1" tooltips="1" connect="1" arrows="1" fold="1" page="1" pageScale="1" pageWidth="1169" pageHeight="826" background="none" math="0" shadow="0">
      <root>
        <mxCell id="0" />
        <mxCell id="1" parent="0" />
        <mxCell id="2" value="Thread 1" style="swimlane;whiteSpace=wrap" parent="1" vertex="1">
          <mxGeometry x="164.5" y="128" width="755.5" height="570" as="geometry" />
        </mxCell>
        <mxCell id="qhate63pUlmhEq-Q-cOs-44" style="edgeStyle=orthogonalEdgeStyle;rounded=0;orthogonalLoop=1;jettySize=auto;html=1;exitX=0.5;exitY=1;exitDx=0;exitDy=0;entryX=0.5;entryY=0;entryDx=0;entryDy=0;" edge="1" parent="2" source="5" target="qhate63pUlmhEq-Q-cOs-41">
          <mxGeometry relative="1" as="geometry" />
        </mxCell>
        <mxCell id="5" value="" style="ellipse;shape=startState;fillColor=#000000;strokeColor=#ff0000;" parent="2" vertex="1">
          <mxGeometry x="55.5" y="40" width="30" height="30" as="geometry" />
        </mxCell>
        <mxCell id="qhate63pUlmhEq-Q-cOs-46" style="edgeStyle=orthogonalEdgeStyle;rounded=0;orthogonalLoop=1;jettySize=auto;html=1;exitX=0.5;exitY=1;exitDx=0;exitDy=0;entryX=0.5;entryY=0;entryDx=0;entryDy=0;" edge="1" parent="2" source="qhate63pUlmhEq-Q-cOs-41" target="qhate63pUlmhEq-Q-cOs-45">
          <mxGeometry relative="1" as="geometry" />
        </mxCell>
        <mxCell id="qhate63pUlmhEq-Q-cOs-41" value="" style="rhombus;whiteSpace=wrap;html=1;" vertex="1" parent="2">
          <mxGeometry x="30.5" y="110" width="80" height="80" as="geometry" />
        </mxCell>
        <mxCell id="qhate63pUlmhEq-Q-cOs-49" style="edgeStyle=orthogonalEdgeStyle;rounded=0;orthogonalLoop=1;jettySize=auto;html=1;entryX=0.5;entryY=0;entryDx=0;entryDy=0;exitX=1;exitY=0.5;exitDx=0;exitDy=0;" edge="1" parent="2" source="qhate63pUlmhEq-Q-cOs-41" target="qhate63pUlmhEq-Q-cOs-43">
          <mxGeometry relative="1" as="geometry">
            <mxPoint x="115.5" y="150" as="sourcePoint" />
          </mxGeometry>
        </mxCell>
        <mxCell id="qhate63pUlmhEq-Q-cOs-42" value="Registrated?" style="text;html=1;strokeColor=none;fillColor=none;align=center;verticalAlign=middle;whiteSpace=wrap;rounded=0;fontSize=8;" vertex="1" parent="2">
          <mxGeometry x="40.5" y="135" width="60" height="30" as="geometry" />
        </mxCell>
        <mxCell id="qhate63pUlmhEq-Q-cOs-45" value="" style="rounded=0;whiteSpace=wrap;html=1;" vertex="1" parent="2">
          <mxGeometry x="30.5" y="252" width="79.5" height="60" as="geometry" />
        </mxCell>
        <mxCell id="qhate63pUlmhEq-Q-cOs-51" style="edgeStyle=orthogonalEdgeStyle;rounded=0;orthogonalLoop=1;jettySize=auto;html=1;entryX=1;entryY=0.5;entryDx=0;entryDy=0;" edge="1" parent="2" source="qhate63pUlmhEq-Q-cOs-43" target="qhate63pUlmhEq-Q-cOs-45">
          <mxGeometry relative="1" as="geometry" />
        </mxCell>
        <mxCell id="qhate63pUlmhEq-Q-cOs-43" value="" style="rounded=0;whiteSpace=wrap;html=1;" vertex="1" parent="2">
          <mxGeometry x="155" y="252" width="79.5" height="60" as="geometry" />
        </mxCell>
        <mxCell id="qhate63pUlmhEq-Q-cOs-47" value="Log In" style="text;html=1;strokeColor=none;fillColor=none;align=center;verticalAlign=middle;whiteSpace=wrap;rounded=0;" vertex="1" parent="2">
          <mxGeometry x="40.5" y="267" width="60" height="30" as="geometry" />
        </mxCell>
        <mxCell id="qhate63pUlmhEq-Q-cOs-48" value="Sign up" style="text;html=1;strokeColor=none;fillColor=none;align=center;verticalAlign=middle;whiteSpace=wrap;rounded=0;" vertex="1" parent="2">
          <mxGeometry x="164.5" y="267" width="60" height="30" as="geometry" />
        </mxCell>
        <mxCell id="qhate63pUlmhEq-Q-cOs-59" value="No" style="text;html=1;strokeColor=none;fillColor=none;align=center;verticalAlign=middle;whiteSpace=wrap;rounded=0;" vertex="1" parent="2">
          <mxGeometry x="100.5" y="122" width="60" height="30" as="geometry" />
        </mxCell>
        <mxCell id="qhate63pUlmhEq-Q-cOs-62" value="Yes" style="text;html=1;strokeColor=none;fillColor=none;align=center;verticalAlign=middle;whiteSpace=wrap;rounded=0;" vertex="1" parent="2">
          <mxGeometry x="55.5" y="182" width="60" height="30" as="geometry" />
        </mxCell>
        <mxCell id="qhate63pUlmhEq-Q-cOs-73" style="edgeStyle=orthogonalEdgeStyle;rounded=0;orthogonalLoop=1;jettySize=auto;html=1;exitX=0.5;exitY=1;exitDx=0;exitDy=0;entryX=0.5;entryY=0;entryDx=0;entryDy=0;" edge="1" parent="2" source="qhate63pUlmhEq-Q-cOs-64" target="qhate63pUlmhEq-Q-cOs-67">
          <mxGeometry relative="1" as="geometry" />
        </mxCell>
        <mxCell id="qhate63pUlmhEq-Q-cOs-74" style="edgeStyle=orthogonalEdgeStyle;rounded=0;orthogonalLoop=1;jettySize=auto;html=1;exitX=1;exitY=0.5;exitDx=0;exitDy=0;entryX=0.5;entryY=0;entryDx=0;entryDy=0;" edge="1" parent="2" source="qhate63pUlmhEq-Q-cOs-64" target="qhate63pUlmhEq-Q-cOs-69">
          <mxGeometry relative="1" as="geometry" />
        </mxCell>
        <mxCell id="qhate63pUlmhEq-Q-cOs-64" value="" style="rounded=0;whiteSpace=wrap;html=1;" vertex="1" parent="2">
          <mxGeometry x="315.5" y="110" width="79.5" height="60" as="geometry" />
        </mxCell>
        <mxCell id="qhate63pUlmhEq-Q-cOs-75" style="edgeStyle=orthogonalEdgeStyle;rounded=0;orthogonalLoop=1;jettySize=auto;html=1;entryX=0.5;entryY=0;entryDx=0;entryDy=0;" edge="1" parent="2" target="qhate63pUlmhEq-Q-cOs-71">
          <mxGeometry relative="1" as="geometry">
            <mxPoint x="395.5" y="140" as="sourcePoint" />
          </mxGeometry>
        </mxCell>
        <mxCell id="qhate63pUlmhEq-Q-cOs-65" value="Choose&lt;br&gt;option" style="text;html=1;strokeColor=none;fillColor=none;align=center;verticalAlign=middle;whiteSpace=wrap;rounded=0;" vertex="1" parent="2">
          <mxGeometry x="325.75" y="125" width="60" height="30" as="geometry" />
        </mxCell>
        <mxCell id="qhate63pUlmhEq-Q-cOs-52" style="edgeStyle=orthogonalEdgeStyle;rounded=0;orthogonalLoop=1;jettySize=auto;html=1;exitX=0.5;exitY=1;exitDx=0;exitDy=0;entryX=0.5;entryY=0;entryDx=0;entryDy=0;" edge="1" parent="2" source="qhate63pUlmhEq-Q-cOs-45" target="qhate63pUlmhEq-Q-cOs-64">
          <mxGeometry relative="1" as="geometry">
            <mxPoint x="355.5" y="112" as="targetPoint" />
            <Array as="points">
              <mxPoint x="70.5" y="332" />
              <mxPoint x="255.5" y="332" />
              <mxPoint x="255.5" y="55" />
              <mxPoint x="355.5" y="55" />
            </Array>
          </mxGeometry>
        </mxCell>
        <mxCell id="qhate63pUlmhEq-Q-cOs-88" style="edgeStyle=orthogonalEdgeStyle;rounded=0;orthogonalLoop=1;jettySize=auto;html=1;exitX=0.5;exitY=1;exitDx=0;exitDy=0;entryX=0.5;entryY=0;entryDx=0;entryDy=0;" edge="1" parent="2" source="qhate63pUlmhEq-Q-cOs-71" target="qhate63pUlmhEq-Q-cOs-86">
          <mxGeometry relative="1" as="geometry" />
        </mxCell>
        <mxCell id="qhate63pUlmhEq-Q-cOs-71" value="" style="rounded=0;whiteSpace=wrap;html=1;" vertex="1" parent="2">
          <mxGeometry x="575.5" y="252" width="79.5" height="60" as="geometry" />
        </mxCell>
        <mxCell id="qhate63pUlmhEq-Q-cOs-72" value="Place&lt;br&gt;product" style="text;html=1;strokeColor=none;fillColor=none;align=center;verticalAlign=middle;whiteSpace=wrap;rounded=0;" vertex="1" parent="2">
          <mxGeometry x="585.75" y="267" width="60" height="30" as="geometry" />
        </mxCell>
        <mxCell id="qhate63pUlmhEq-Q-cOs-85" style="edgeStyle=orthogonalEdgeStyle;rounded=0;orthogonalLoop=1;jettySize=auto;html=1;exitX=0.5;exitY=1;exitDx=0;exitDy=0;entryX=1;entryY=0.5;entryDx=0;entryDy=0;" edge="1" parent="2" source="qhate63pUlmhEq-Q-cOs-69" target="qhate63pUlmhEq-Q-cOs-79">
          <mxGeometry relative="1" as="geometry" />
        </mxCell>
        <mxCell id="qhate63pUlmhEq-Q-cOs-69" value="" style="rounded=0;whiteSpace=wrap;html=1;" vertex="1" parent="2">
          <mxGeometry x="445.5" y="252" width="79.5" height="60" as="geometry" />
        </mxCell>
        <mxCell id="qhate63pUlmhEq-Q-cOs-70" value="Watch&lt;br&gt;products" style="text;html=1;strokeColor=none;fillColor=none;align=center;verticalAlign=middle;whiteSpace=wrap;rounded=0;" vertex="1" parent="2">
          <mxGeometry x="455.25" y="267" width="60" height="30" as="geometry" />
        </mxCell>
        <mxCell id="qhate63pUlmhEq-Q-cOs-82" style="edgeStyle=orthogonalEdgeStyle;rounded=0;orthogonalLoop=1;jettySize=auto;html=1;exitX=0.5;exitY=1;exitDx=0;exitDy=0;entryX=0;entryY=0.5;entryDx=0;entryDy=0;" edge="1" parent="2" source="qhate63pUlmhEq-Q-cOs-67" target="qhate63pUlmhEq-Q-cOs-79">
          <mxGeometry relative="1" as="geometry" />
        </mxCell>
        <mxCell id="qhate63pUlmhEq-Q-cOs-67" value="" style="rounded=0;whiteSpace=wrap;html=1;" vertex="1" parent="2">
          <mxGeometry x="315.5" y="252" width="79.5" height="60" as="geometry" />
        </mxCell>
        <mxCell id="qhate63pUlmhEq-Q-cOs-68" value="Watch&lt;br&gt;profile" style="text;html=1;strokeColor=none;fillColor=none;align=center;verticalAlign=middle;whiteSpace=wrap;rounded=0;" vertex="1" parent="2">
          <mxGeometry x="325.75" y="267" width="60" height="30" as="geometry" />
        </mxCell>
        <mxCell id="qhate63pUlmhEq-Q-cOs-91" style="edgeStyle=orthogonalEdgeStyle;rounded=0;orthogonalLoop=1;jettySize=auto;html=1;exitX=0.5;exitY=1;exitDx=0;exitDy=0;entryX=0.5;entryY=0;entryDx=0;entryDy=0;" edge="1" parent="2" source="qhate63pUlmhEq-Q-cOs-79" target="qhate63pUlmhEq-Q-cOs-89">
          <mxGeometry relative="1" as="geometry" />
        </mxCell>
        <mxCell id="qhate63pUlmhEq-Q-cOs-79" value="" style="rounded=0;whiteSpace=wrap;html=1;" vertex="1" parent="2">
          <mxGeometry x="380.5" y="372" width="79.5" height="60" as="geometry" />
        </mxCell>
        <mxCell id="qhate63pUlmhEq-Q-cOs-80" value="Get request" style="text;html=1;strokeColor=none;fillColor=none;align=center;verticalAlign=middle;whiteSpace=wrap;rounded=0;" vertex="1" parent="2">
          <mxGeometry x="390.75" y="387" width="60" height="30" as="geometry" />
        </mxCell>
        <mxCell id="qhate63pUlmhEq-Q-cOs-93" style="edgeStyle=orthogonalEdgeStyle;rounded=0;orthogonalLoop=1;jettySize=auto;html=1;exitX=0.5;exitY=1;exitDx=0;exitDy=0;entryX=1;entryY=0.5;entryDx=0;entryDy=0;" edge="1" parent="2" source="qhate63pUlmhEq-Q-cOs-86" target="qhate63pUlmhEq-Q-cOs-89">
          <mxGeometry relative="1" as="geometry" />
        </mxCell>
        <mxCell id="qhate63pUlmhEq-Q-cOs-86" value="" style="rounded=0;whiteSpace=wrap;html=1;" vertex="1" parent="2">
          <mxGeometry x="576" y="372" width="79.5" height="60" as="geometry" />
        </mxCell>
        <mxCell id="qhate63pUlmhEq-Q-cOs-87" value="Post&lt;br&gt;requset" style="text;html=1;strokeColor=none;fillColor=none;align=center;verticalAlign=middle;whiteSpace=wrap;rounded=0;" vertex="1" parent="2">
          <mxGeometry x="586.25" y="387" width="60" height="30" as="geometry" />
        </mxCell>
        <mxCell id="38" value="" style="ellipse;shape=endState;fillColor=#000000;strokeColor=#ff0000" parent="2" vertex="1">
          <mxGeometry x="55.5" y="497" width="30" height="30" as="geometry" />
        </mxCell>
        <mxCell id="qhate63pUlmhEq-Q-cOs-94" style="edgeStyle=orthogonalEdgeStyle;rounded=0;orthogonalLoop=1;jettySize=auto;html=1;exitX=0;exitY=0.5;exitDx=0;exitDy=0;entryX=1;entryY=0.5;entryDx=0;entryDy=0;" edge="1" parent="2" source="qhate63pUlmhEq-Q-cOs-89" target="38">
          <mxGeometry relative="1" as="geometry" />
        </mxCell>
        <mxCell id="qhate63pUlmhEq-Q-cOs-89" value="" style="rounded=0;whiteSpace=wrap;html=1;" vertex="1" parent="2">
          <mxGeometry x="154.75" y="482" width="79.5" height="60" as="geometry" />
        </mxCell>
        <mxCell id="qhate63pUlmhEq-Q-cOs-90" value="Result" style="text;html=1;strokeColor=none;fillColor=none;align=center;verticalAlign=middle;whiteSpace=wrap;rounded=0;" vertex="1" parent="2">
          <mxGeometry x="165" y="497" width="60" height="30" as="geometry" />
        </mxCell>
      </root>
    </mxGraphModel>
  </diagram>
</mxfile>
